<?xml version="1.0" encoding="utf-8"?>
<!-- Generator: Adobe Illustrator 18.0.0, SVG Export Plug-In . SVG Version: 6.00 Build 0)  -->
<!DOCTYPE svg PUBLIC "-//W3C//DTD SVG 1.1//EN" "http://www.w3.org/Graphics/SVG/1.1/DTD/svg11.dtd">
<svg version="1.1" id="Layer_1" xmlns="http://www.w3.org/2000/svg" xmlns:xlink="http://www.w3.org/1999/xlink" x="0px" y="0px"
	 viewBox="0 0 500 500" enable-background="new 0 0 500 500" xml:space="preserve">
<rect fill="#CC6600" width="500" height="500"/>
<path fill="#FFFFFF" d="M40,218.5c8.2-0.8,13.2-1.6,18.2-1.6c27-0.1,54-0.6,81,0.3c12,0.4,16.2-3,16.1-15.5
	c-0.6-43.9-0.2-87.9-0.2-131.8c0-15.2,0.7-16,15.5-16c23.4,0,46.8,0.7,70.1,0.3c10.6-0.2,14.4,4.2,13.9,14.4
	c-0.7,14.1-0.1,28.2-0.7,42.3c-0.4,9.1,3,13.6,12,16.4c16,4.9,31.4,11.6,47.2,17.2c5.6,2,11.6,4.3,17.3,4c20-1.1,39.8-3.6,59.8-4.9
	c5.8-0.4,11.9,1.1,17.6,2.5c4.2,1,8.1,3.7,12.3,5c20.9,6.6,21.4,6.5,20.9,29.1c-0.4,17.9,0.7,34.6,11.4,50.5
	c12.7,18.9,6.4,40.5,4.1,61.1c-0.4,3.8-4,8.1-7.3,10.5c-23.8,17-48.2,33.3-71.9,50.4c-8.8,6.4-21.1,8.8-24.7,21.6
	c-5.3,18.5-9.1,36.7-2.4,55.8c1.5,4.4,2.5,12.9,0.7,13.8c-4.4,2.3-10.9,2.8-15.9,1.4c-16.2-4.6-32.3-10-48.1-15.9
	c-3.5-1.3-7.1-5.5-8.3-9.2c-11.1-33.3-37.9-57.7-50.8-90c-1.2-3.1-6.8-4.7-10.5-6.7c-9.2-4.7-19.1-8.2-27.5-14
	c-9.1-6.4-19.8-4.8-24.1,5.6c-1.4,3.3-2.2,6.9-4,10.1c-4.7,8.5-10.8,9.4-20.2,6.2c-26-8.7-40-26.4-45.1-52.8
	c-0.9-4.4-5.3-8.6-8.9-12c-13.2-12.4-26.9-24.2-40.2-36.5C44.8,227.8,43.5,224.3,40,218.5z"/>
<text transform="matrix(1 0 0 1 178.1257 290.8835)" fill="#C65A11" font-family="'Krungthep'" font-size="147">cC</text>
</svg>
